<svg width="32" height="21" viewBox="0 0 32 21" fill="none" xmlns="http://www.w3.org/2000/svg">
<path d="M14.6368 14.4827C16.0005 13.5911 17.0358 12.2922 17.5897 10.7781C18.1435 9.26392 18.1865 7.61492 17.7123 6.07492C17.2381 4.53492 16.2718 3.18568 14.9563 2.22672C13.6409 1.26776 12.0461 0.75 10.4079 0.75C8.76965 0.75 7.17489 1.26776 5.85946 2.22672C4.54402 3.18568 3.57774 4.53492 3.1035 6.07492C2.62927 7.61492 2.67226 9.26392 3.22612 10.7781C3.77998 12.2922 4.8153 13.5911 6.17898 14.4827C3.71221 15.3756 1.60553 17.0279 0.173293 19.1929C0.0980198 19.3028 0.0457346 19.4263 0.0194771 19.5562C-0.00678035 19.6861 -0.00648637 19.8198 0.020342 19.9496C0.0471703 20.0793 0.0999979 20.2026 0.175754 20.3121C0.25151 20.4217 0.348683 20.5154 0.461626 20.5877C0.574568 20.6601 0.701026 20.7096 0.83365 20.7336C0.966273 20.7575 1.10242 20.7553 1.23417 20.7271C1.36592 20.6989 1.49064 20.6452 1.6011 20.5693C1.71155 20.4933 1.80553 20.3966 1.87758 20.2846C2.80144 18.8891 4.06562 17.7424 5.55531 16.9486C7.04501 16.1548 8.71303 15.739 10.4079 15.739C12.1028 15.739 13.7708 16.1548 15.2605 16.9486C16.7502 17.7424 18.0144 18.8891 18.9382 20.2846C19.0874 20.5024 19.318 20.6538 19.58 20.7061C19.8419 20.7583 20.1143 20.7072 20.3383 20.5638C20.5622 20.4203 20.7196 20.1961 20.7765 19.9396C20.8335 19.6831 20.7853 19.4149 20.6425 19.1929C19.2103 17.0279 17.1036 15.3756 14.6368 14.4827ZM4.81174 8.24741C4.81174 7.16043 5.13995 6.09786 5.75486 5.19407C6.36978 4.29028 7.24377 3.58586 8.26634 3.16989C9.2889 2.75392 10.4141 2.64508 11.4996 2.85714C12.5852 3.0692 13.5823 3.59263 14.365 4.36124C15.1476 5.12985 15.6806 6.10912 15.8965 7.17522C16.1124 8.24131 16.0016 9.34635 15.5781 10.3506C15.1545 11.3548 14.4372 12.2132 13.5169 12.8171C12.5967 13.421 11.5147 13.7433 10.4079 13.7433C8.92422 13.7416 7.50179 13.1621 6.45267 12.1318C5.40356 11.1014 4.81342 9.7045 4.81174 8.24741ZM31.5385 20.5756C31.3124 20.7204 31.0372 20.771 30.7731 20.7165C30.5091 20.6619 30.2779 20.5065 30.1305 20.2846C29.2078 18.8883 27.9437 17.7411 26.4537 16.9476C24.9637 16.1541 23.2952 15.7396 21.6002 15.7418C21.3303 15.7418 21.0715 15.6365 20.8807 15.4491C20.6899 15.2617 20.5827 15.0075 20.5827 14.7425C20.5827 14.4775 20.6899 14.2233 20.8807 14.036C21.0715 13.8486 21.3303 13.7433 21.6002 13.7433C22.4243 13.7425 23.2381 13.563 23.9834 13.2176C24.7287 12.8721 25.3871 12.3693 25.9116 11.745C26.436 11.1207 26.8136 10.3903 27.0174 9.60611C27.2211 8.82188 27.246 8.00313 27.0902 7.20838C26.9343 6.41362 26.6017 5.66247 26.1161 5.00859C25.6304 4.35471 25.0037 3.81425 24.2806 3.42582C23.5576 3.0374 22.7562 2.81059 21.9336 2.76161C21.111 2.71264 20.2875 2.84269 19.522 3.1425C19.3972 3.19548 19.2628 3.22337 19.1269 3.22449C18.9909 3.22562 18.8561 3.19997 18.7304 3.14907C18.6046 3.09816 18.4906 3.02302 18.395 2.92809C18.2993 2.83317 18.224 2.72038 18.1735 2.59639C18.123 2.47241 18.0984 2.33974 18.101 2.20622C18.1035 2.07271 18.1334 1.94106 18.1886 1.81905C18.2439 1.69705 18.3235 1.58716 18.4228 1.49589C18.522 1.40461 18.6389 1.3338 18.7665 1.28764C20.5184 0.601468 22.467 0.576776 24.2364 1.21832C26.0058 1.85987 27.4706 3.12221 28.3481 4.7618C29.2257 6.40139 29.4539 8.30207 28.9888 10.0972C28.5236 11.8923 27.398 13.4546 25.8291 14.4827C28.2959 15.3756 30.4026 17.0279 31.8348 19.1929C31.9822 19.4149 32.0338 19.6853 31.9782 19.9446C31.9226 20.2039 31.7644 20.4309 31.5385 20.5756Z" fill="white"/>
</svg>
