<svg width="23" height="23" viewBox="0 0 23 23" fill="none" xmlns="http://www.w3.org/2000/svg">
<path d="M22.4609 5.67821L17.3227 0.539051C17.1518 0.368154 16.9489 0.232588 16.7257 0.140096C16.5024 0.0476051 16.2631 0 16.0214 0C15.7798 0 15.5404 0.0476051 15.3172 0.140096C15.0939 0.232588 14.891 0.368154 14.7202 0.539051L0.539365 14.7203C0.36776 14.8905 0.231706 15.0932 0.139114 15.3165C0.0465213 15.5397 -0.000762964 15.7792 9.3093e-06 16.0209V21.1601C9.3093e-06 21.648 0.193868 22.116 0.538939 22.4611C0.88401 22.8061 1.35203 23 1.84003 23H6.97944C7.22116 23.0008 7.46063 22.9535 7.68392 22.8609C7.90721 22.7683 8.10986 22.6323 8.28011 22.4607L22.4609 8.28055C22.6318 8.1097 22.7674 7.90684 22.8599 7.68359C22.9524 7.46033 23 7.22104 23 6.97938C23 6.73772 22.9524 6.49843 22.8599 6.27517C22.7674 6.05191 22.6318 5.84906 22.4609 5.67821ZM18.4002 9.7387L13.2608 4.6007L16.0208 1.8408L21.1603 6.9788L18.4002 9.7387Z" fill="#107D91"/>
</svg>
