<svg width="30" height="30" viewBox="0 0 30 30" fill="none" xmlns="http://www.w3.org/2000/svg">
<path d="M15 0.288086C12.0902 0.288086 9.24584 1.15092 6.82648 2.76748C4.40713 4.38404 2.52147 6.68172 1.40797 9.36996C0.29446 12.0582 0.00311643 15.0163 0.570777 17.8701C1.13844 20.7239 2.53961 23.3453 4.5971 25.4028C6.65459 27.4603 9.27599 28.8615 12.1298 29.4291C14.9836 29.9968 17.9417 29.7054 20.6299 28.5919C23.3182 27.4784 25.6159 25.5928 27.2324 23.1734C28.849 20.7541 29.7118 17.9097 29.7118 14.9999C29.7073 11.0995 28.1559 7.36009 25.3979 4.60205C22.6398 1.84402 18.9004 0.292579 15 0.288086ZM27.4485 14.9999C27.4494 16.148 27.2909 17.2906 26.9774 18.395H21.5298C21.8768 16.1449 21.8768 13.855 21.5298 11.6049H26.9774C27.2909 12.7093 27.4494 13.8519 27.4485 14.9999ZM11.322 20.6584H18.6779C17.9532 23.0329 16.6952 25.2103 15 27.0241C13.3054 25.2098 12.0474 23.0326 11.322 20.6584ZM10.7703 18.395C10.3818 16.1483 10.3818 13.8516 10.7703 11.6049H19.2409C19.6295 13.8516 19.6295 16.1483 19.2409 18.395H10.7703ZM2.55146 14.9999C2.55047 13.8519 2.70901 12.7093 3.02252 11.6049H8.47015C8.1231 13.855 8.1231 16.1449 8.47015 18.395H3.02252C2.70901 17.2906 2.55047 16.148 2.55146 14.9999ZM18.6779 9.34154H11.322C12.0467 6.967 13.3047 4.78961 15 2.97583C16.6945 4.79009 17.9525 6.96732 18.6779 9.34154ZM26.0805 9.34154H21.0417C20.4066 7.01156 19.3363 4.82284 17.8872 2.89095C19.638 3.31156 21.2772 4.10578 22.6924 5.21918C24.1076 6.33259 25.2653 7.73884 26.0862 9.34154H26.0805ZM12.1128 2.89095C10.6636 4.82284 9.59327 7.01156 8.95819 9.34154H3.91372C4.73457 7.73884 5.89228 6.33259 7.30747 5.21918C8.72267 4.10578 10.3619 3.31156 12.1128 2.89095ZM3.91372 20.6584H8.95819C9.59327 22.9883 10.6636 25.1771 12.1128 27.1089C10.3619 26.6883 8.72267 25.8941 7.30747 24.7807C5.89228 23.6673 4.73457 22.2611 3.91372 20.6584ZM17.8872 27.1089C19.3363 25.1771 20.4066 22.9883 21.0417 20.6584H26.0862C25.2653 22.2611 24.1076 23.6673 22.6924 24.7807C21.2772 25.8941 19.638 26.6883 17.8872 27.1089Z" fill="white"/>
</svg>
