<svg width="33" height="28" viewBox="0 0 33 28" fill="none" xmlns="http://www.w3.org/2000/svg">
<path d="M32.5 26.25C32.5 26.5815 32.3683 26.8995 32.1339 27.1339C31.8995 27.3683 31.5815 27.5 31.25 27.5H1.25C0.918479 27.5 0.600537 27.3683 0.366116 27.1339C0.131696 26.8995 0 26.5815 0 26.25V1.25C0 0.918479 0.131696 0.600537 0.366116 0.366117C0.600537 0.131696 0.918479 0 1.25 0C1.58152 0 1.89946 0.131696 2.13388 0.366117C2.3683 0.600537 2.5 0.918479 2.5 1.25V18.2328L10.3656 10.3656C10.4817 10.2494 10.6196 10.1572 10.7713 10.0943C10.9231 10.0314 11.0857 9.99902 11.25 9.99902C11.4143 9.99902 11.5769 10.0314 11.7287 10.0943C11.8804 10.1572 12.0183 10.2494 12.1344 10.3656L16.25 14.4828L24.4828 6.25H21.25C20.9185 6.25 20.6005 6.1183 20.3661 5.88388C20.1317 5.64946 20 5.33152 20 5C20 4.66848 20.1317 4.35054 20.3661 4.11612C20.6005 3.8817 20.9185 3.75 21.25 3.75H27.5C27.8315 3.75 28.1495 3.8817 28.3839 4.11612C28.6183 4.35054 28.75 4.66848 28.75 5V11.25C28.75 11.5815 28.6183 11.8995 28.3839 12.1339C28.1495 12.3683 27.8315 12.5 27.5 12.5C27.1685 12.5 26.8505 12.3683 26.6161 12.1339C26.3817 11.8995 26.25 11.5815 26.25 11.25V8.01719L17.1344 17.1344C17.0183 17.2506 16.8804 17.3428 16.7287 17.4057C16.5769 17.4686 16.4143 17.501 16.25 17.501C16.0857 17.501 15.9231 17.4686 15.7713 17.4057C15.6196 17.3428 15.4817 17.2506 15.3656 17.1344L11.25 13.0172L2.5 21.7672V25H31.25C31.5815 25 31.8995 25.1317 32.1339 25.3661C32.3683 25.6005 32.5 25.9185 32.5 26.25Z" fill="white"/>
</svg>
