<svg width="23" height="31" viewBox="0 0 23 31" fill="none" xmlns="http://www.w3.org/2000/svg">
<path d="M22.973 14.2299C22.9334 14.0642 22.8531 13.9108 22.7391 13.7832C22.6252 13.6556 22.4811 13.5578 22.3197 13.4985L14.793 10.7063L16.7084 1.23136C16.7517 1.01121 16.7215 0.783089 16.6223 0.581411C16.5231 0.379733 16.3602 0.215444 16.1583 0.113335C15.9564 0.0112269 15.7264 -0.0231604 15.5029 0.0153626C15.2795 0.0538856 15.0748 0.163228 14.9198 0.326891L0.287063 15.8321C0.168218 15.9559 0.0822439 16.107 0.0368221 16.2717C-0.00859971 16.4364 -0.0120547 16.6097 0.0267661 16.7761C0.0655869 16.9424 0.145474 17.0967 0.259291 17.2251C0.373107 17.3535 0.517309 17.452 0.679011 17.5118L8.20833 20.304L6.29823 29.7686C6.25486 29.9888 6.28507 30.2169 6.3843 30.4186C6.48352 30.6203 6.64638 30.7846 6.8483 30.8867C7.05022 30.9888 7.28024 31.0232 7.50366 30.9846C7.72707 30.9461 7.93176 30.8368 8.08682 30.6731L22.7195 15.1679C22.8362 15.0441 22.9204 14.8937 22.9646 14.7302C23.0088 14.5666 23.0117 14.3948 22.973 14.2299ZM9.06931 26.612L10.4372 19.844C10.4862 19.604 10.4474 19.3546 10.3277 19.1402C10.2081 18.9258 10.0154 18.7604 9.78396 18.6734L2.88045 16.1086L13.936 4.39442L12.5694 11.1624C12.5204 11.4025 12.5592 11.6519 12.6789 11.8663C12.7985 12.0807 12.9912 12.2461 13.2226 12.3331L20.1209 14.8914L9.06931 26.612Z" fill="white"/>
</svg>
