<svg width="28" height="29" viewBox="0 0 28 29" fill="none" xmlns="http://www.w3.org/2000/svg">
<path d="M25.6667 0.75H2.33333C1.71449 0.75 1.121 0.985999 0.683417 1.40608C0.245833 1.82616 0 2.39591 0 2.98999V10.83C0 18.2108 3.72167 22.6837 6.84396 25.1365C10.2069 27.7769 13.5523 28.6729 13.6981 28.7107C13.8986 28.7631 14.1101 28.7631 14.3106 28.7107C14.4565 28.6729 17.7975 27.7769 21.1648 25.1365C24.2783 22.6837 28 18.2108 28 10.83V2.98999C28 2.39591 27.7542 1.82616 27.3166 1.40608C26.879 0.985999 26.2855 0.75 25.6667 0.75ZM25.6667 10.83C25.6667 16.0198 23.6746 20.2323 19.7458 23.3487C18.0356 24.7007 16.0906 25.7528 14 26.4567C11.9368 25.7651 10.0158 24.7317 8.32417 23.4033C4.34875 20.2813 2.33333 16.052 2.33333 10.83V2.98999H25.6667V10.83ZM7.34125 14.9824C7.12233 14.7722 6.99935 14.4872 6.99935 14.19C6.99935 13.8928 7.12233 13.6077 7.34125 13.3976C7.56016 13.1874 7.85708 13.0693 8.16667 13.0693C8.47626 13.0693 8.77317 13.1874 8.99208 13.3976L11.6667 15.9666L19.0079 8.91758C19.1163 8.81352 19.245 8.73097 19.3866 8.67466C19.5282 8.61834 19.68 8.58936 19.8333 8.58936C19.9866 8.58936 20.1384 8.61834 20.28 8.67466C20.4217 8.73097 20.5504 8.81352 20.6588 8.91758C20.7671 9.02164 20.8531 9.14517 20.9118 9.28113C20.9705 9.41709 21.0006 9.56281 21.0006 9.70998C21.0006 9.85714 20.9705 10.0029 20.9118 10.1388C20.8531 10.2748 20.7671 10.3983 20.6588 10.5024L12.4921 18.3424C12.3837 18.4465 12.2551 18.5291 12.1134 18.5855C11.9718 18.6418 11.82 18.6708 11.6667 18.6708C11.5133 18.6708 11.3615 18.6418 11.2199 18.5855C11.0783 18.5291 10.9496 18.4465 10.8412 18.3424L7.34125 14.9824Z" fill="white"/>
</svg>
